# xmcd
#
# Track frame offsets:
#  150
#  35677
#  59445
#  80582
#  96827
#  127797
#  147592
#  167192
#
# Disc length: 2620 seconds
#
# Revision: 0
# Processed by: cddbd v1.5.1PL0 Copyright (c) Steve Scherf et al.
# Submitted via: AltoMP3_Maker 3.0
#
DISCID=6e0a3a08
DTITLE=East Southern - East Southern
DYEAR=1900
DGENRE=
TTITLE0=Nothing I Can Do
TTITLE1=Louisiana
TTITLE2=Cry in the Rain
TTITLE3=Whisper
TTITLE4=Wait till Midnight
TTITLE5=Further on up the Road
TTITLE6=As Time Goes On
TTITLE7=Southbound
EXTD=
EXTT0=
EXTT1=
EXTT2=
EXTT3=
EXTT4=
EXTT5=
EXTT6=
EXTT7=
PLAYORDER=
